/* XPM */
static char *browser[] = {
/* columns rows colors chars-per-pixel */
"48 48 256 2",
"   c #0D2044",
".  c #14264D",
"X  c #132346",
"o  c #152852",
"O  c #192B55",
"+  c #182D5A",
"@  c #162B57",
"#  c #18305E",
"$  c #0E2D6E",
"%  c #0D276A",
"&  c #132D64",
"*  c #112C6E",
"=  c #1A3364",
"-  c #153469",
";  c #1B356C",
":  c #1C386E",
">  c #163366",
",  c #0F2F70",
"<  c #0D3472",
"1  c #0B3C78",
"2  c #073775",
"3  c #143272",
"4  c #1D3A74",
"5  c #1C3E79",
"6  c #183774",
"7  c #203770",
"8  c #213B74",
"9  c #223E79",
"0  c #09477E",
"q  c #18437A",
"w  c #25417A",
"e  c #29457F",
"r  c #294A7E",
"t  c #214077",
"y  c #384E7F",
"u  c #4F586B",
"i  c #525B6E",
"p  c #5D687E",
"a  c #60636F",
"s  c #616370",
"d  c #094A80",
"f  c #1B4C82",
"g  c #025D8C",
"h  c #065688",
"j  c #294780",
"k  c #2C4C82",
"l  c #244D83",
"z  c #314E87",
"x  c #304D88",
"c  c #2A5084",
"v  c #225A86",
"b  c #2F5A8D",
"n  c #34538B",
"m  c #39568E",
"M  c #305C8F",
"N  c #3B5B8E",
"B  c #205E93",
"V  c #375590",
"C  c #3C5B93",
"Z  c #02608D",
"A  c #006691",
"S  c #016994",
"D  c #0C6E96",
"F  c #0F6490",
"G  c #1A6996",
"H  c #0C719A",
"J  c #13729A",
"K  c #18769B",
"L  c #1E7A9E",
"P  c #236389",
"I  c #3F628B",
"U  c #306295",
"Y  c #3F6094",
"T  c #366C9E",
"R  c #3B6897",
"E  c #237B9E",
"W  c #21719A",
"Q  c #3A749B",
"!  c #1B79A3",
"~  c #1876A2",
"^  c #237CA4",
"/  c #2A7EA1",
"(  c #247EAA",
")  c #2A7FAB",
"_  c #3C7BAB",
"`  c #3B77A7",
"'  c #455983",
"]  c #405F97",
"[  c #55678A",
"{  c #5B6C8F",
"}  c #43639C",
"|  c #4C6C9B",
" . c #496190",
".. c #556991",
"X. c #4B779E",
"o. c #5B7391",
"O. c #5B7C99",
"+. c #606B82",
"@. c #66738E",
"#. c #6D7383",
"$. c #757A88",
"%. c #657491",
"&. c #697691",
"*. c #657A95",
"=. c #6D7A94",
"-. c #727D95",
";. c #727F98",
":. c #4A6AA3",
">. c #4C76AB",
",. c #5178A5",
"<. c #5678A7",
"1. c #2D82A4",
"2. c #2E80AE",
"3. c #2081A5",
"4. c #3485A6",
"5. c #3E81AF",
"6. c #3C8BAA",
"7. c #3586AD",
"8. c #3685B3",
"9. c #3C84B2",
"0. c #788094",
"q. c #75819A",
"w. c #79859D",
"e. c #7C889E",
"r. c #428EAD",
"t. c #4884A4",
"y. c #5581AB",
"u. c #5587A8",
"i. c #4590AD",
"p. c #4992AF",
"a. c #4286B2",
"s. c #4D95B2",
"d. c #4A93BA",
"f. c #549BB6",
"g. c #589EB7",
"h. c #5C9FB9",
"j. c #5497B2",
"k. c #6886A7",
"l. c #7D8AA1",
"z. c #7888A2",
"x. c #6792AF",
"c. c #7594AB",
"v. c #6C8CB3",
"b. c #6B98B7",
"n. c #769AB6",
"m. c #5EA1BA",
"M. c #65A5BD",
"N. c #68A8BF",
"B. c #73A2BA",
"V. c #7AA3B8",
"C. c #6DABC1",
"Z. c #66AAC0",
"A. c #72AEC4",
"S. c #78A9C4",
"D. c #78A3C5",
"F. c #75B1C5",
"G. c #7AB3C6",
"H. c #7CB6C8",
"J. c #7FB9CB",
"K. c #8A8E96",
"L. c #828DA3",
"P. c #8691A5",
"I. c #8A97AC",
"U. c #8D99AC",
"Y. c #8395AC",
"T. c #929BAD",
"R. c #999DA4",
"E. c #8D9CB1",
"W. c #849BB2",
"Q. c #919BB3",
"!. c #949CBA",
"~. c #85A7BD",
"^. c #9AA4B4",
"/. c #9DA8BA",
"(. c #91A6BC",
"). c #A3ADBB",
"_. c #A0AAB7",
"`. c #ABB3BD",
"'. c #A6B1BF",
"]. c #87ABC5",
"[. c #80B7C9",
"{. c #84BACC",
"}. c #8BBECE",
"|. c #94B3C4",
" X c #9EB8C9",
".X c #8ABFD0",
"XX c #9FBFD3",
"oX c #A5AFC0",
"OX c #A6B2C3",
"+X c #AAB4C2",
"@X c #A5BACB",
"#X c #AFBCCE",
"$X c #AFBAC5",
"%X c #B3BBC6",
"&X c #B2BDCC",
"*X c #89C0CF",
"=X c #8FC2D1",
"-X c #94C4D3",
";X c #9AC6D5",
":X c #9BC8D6",
">X c #ABC0CE",
",X c #B8C1C6",
"<X c #B7C0CC",
"1X c #BAC4CD",
"2X c #BEC8CF",
"3X c #ACC4D3",
"4X c #A3CDDA",
"5X c #A8CCD7",
"6X c #B5C3D2",
"7X c #BBC6D1",
"8X c #BEC9D3",
"9X c #A6D1DD",
"0X c #AED5DF",
"qX c #B8D1DC",
"wX c #ADD5E1",
"eX c #B0D7E0",
"rX c #BBDEE6",
"tX c #B4D8E1",
"yX c #BEE0E7",
"uX c #C3CACE",
"iX c #C4CDD2",
"pX c #C6CED8",
"aX c #C8CDD3",
"sX c #C7D0D2",
"dX c #CAD3D4",
"fX c #C7D0DA",
"gX c #CDD5DA",
"hX c #CFD8D8",
"jX c #D1D7D9",
"kX c #D4DBDC",
"lX c #D9DFDE",
"zX c #D9E0DF",
"xX c #CBD7E1",
"cX c #D7DDE2",
"vX c #D9DFE1",
"bX c #D0D7E0",
"nX c #C3E5EA",
"mX c #CCEAEE",
"MX c #C1E0E7",
"NX c #DCE2E3",
"BX c #DFE6E9",
"VX c #D0EBED",
"CX c #E1E6E6",
"ZX c #E3E8E7",
"AX c #E3E7E8",
"SX c #E5EAEA",
"DX c #EAEDED",
"FX c #E8EAE7",
"GX c #ECF0EE",
"HX c #ECEFF0",
"JX c #EEF1F1",
"KX c #F2F4F4",
"LX c #F6F8F7",
"PX c #F7F9F8",
"IX c #FBFCFB",
"UX c None",
/* pixels */
"UXUXUXUXUXUXUXUXUXUXUXUXUXUXUXUXUXUXUXUXUXUXUXUX-.-.=.UXUXUXUXUXUXUXUXUXUXUXUXUXUXUXUXUXUXUXUXUX",
"UXUXUXUXUXUXUXUXUXUXUXUXUXUXUXUXUXUXUXUXUXUX&.L.+X%X+X_.^.I.q.=.=.&.UXUXUXUXUXUXUXUXUXUXUXUXUXUX",
"UXUXUXUXUXUXUXUXUXUXUXUXUXUXUXUXUXUXUXUX&.=.8XgXgXfXfXpXiXiX7X<X+X^.l.&.UXUXUXUXUXUXUXUXUXUXUXUX",
"UXUXUXUXUXUXUXUXUXUXUXUXUXUXUXUXUXUXUX&.w.pXgXcXcXNXNXkXhXsXiX7X7X7X7X$X=.%.UXUXUXUXUXUXUXUXUXUX",
"UXUXUXUXUXUXUXUXUXUXUXUXUXUXUXUXUXUX@.w.bXBXHXDXSXNXvXkXgXsXsXsXiX1X7X7X<Xl.=.UXUXUXUXUXUXUXUXUX",
"UXUXUXUXUXUXUXUXUXUXUXUXUXUXUXUXUXUX=.vXKXKXDXSXCXNXkXjXdXiXsXsXsXaX1X7X7X1XL.&.UXUXUXUXUXUXUXUX",
"UXUXUXUXUXUXUXUXUXUXUXUXUXUXUXUXUX@.kXLXKXJXDXAXNXvXkXdXiXiXsXsXsXsXaX1X7X8X1Xw.UXUXUXUXUXUXUXUX",
"UXUXUXUXUXUXUXUXUXUXUXUXUXUXUXUX@.iXPXLXKXHXSXCXNXkXhXsXiXiXsXsXsXsXsXiX1X7X8XOX;.UXUXUXUXUXUXUX",
"UXUXUXUXUXUXUXUXUXUXUXUXUXUXUX@.%XIXIXLXKXDXAXNXlXjXdXiXiXsXsXsXsXsXsXsX7X1X8X8Xz.UXUXUXUXUXUXUX",
"UXUXUXUXUXUXUXUXUXUXUXUXUXUX@.+XIXIXIXLXHXSXCXNXkXdXiXsXsXsXsXiXsXsXsXsXiX1X7XiXQ.UXUXUXUXUXUXUX",
"UXUXUXUXUXUXUXUXUXUXUXUXUX@.1XIXIXIXLXJXDXAXNXkXhXsXsXsXsXsXsX7XsXkXhXhXdX1X7X8X/.+.UXUXUXUXUXUX",
"UXUXUXUXUXUXUXUXUXUXUXUX@.aXPXIXIXPXKXDXAXNXlXjXdXiX7XsXiXiXsX#X`.%XvXkXdX2X7X8X+X=.UXUXUXUXUXUX",
"UXUXUXUXUXUXUXUXUXUX@.&.jXLXIXIXPXKXDXSXNXcXjXdXdXdXiX6X_.w.iX&X'.P.AXkXgXiX7X8X).+.UXUXUXUXUXUX",
"UXUXUXUXUXUXUXUXT.=.-.vXKXPXIXPXKXDXSXCXvXkXdXiXdXkXsX7X6Xw.I.6XOXP.DXkXhXiX7X8XQ.i UXUXUXUXUXUX",
"UXUXUXUXUXUXUXU.q.e.CXKXJXPXLXKXDXSXCXNXkXhXsXsXdXCXsXaX6X#X=.(.).U.GXlXjXiX1X8XU.u UXUXUXUXUXUX",
"UXUXUXUXUXUXUXq.P.AXJXNX/.gXKXHXSXCXNXkXjXdXdXdXdXAXkXsXiX6XOX=.E.T.DXNXjXsX1X8X^.p UXUXUXUXUXUX",
"UXUXUXUXUXUX;.-.NXDXkX).@XoXDXSXCXNXlXkXdX,X,X,XdXSXAXdXsX8X6X^.&.I.GXSXjXjX8X8X+X-.UXUXUXUXUXUX",
"UXUXUXUXUXUX&.2XSXDX&X3XxXgXSXCXNXlXjX`.q.=.=.=.q.hXSXNXsXsX6X6X=.o.1XGXzXkXgX8X<Xq.UXUXUXUXUXUX",
"UXUXUXUXUXUXe.AXSXSXBXNXDXSXCXNXkX).-.=.k.u.C C ..q.lXSXlXsXiX6Xw.P %.aXSXkXkXpXiXP.UXUXUXUXUXUX",
"UXUXUXUXUX@.^.ZXSXSXSXAXAXCXNX,X-.q.c.n.b.B.>.:.C %.).SXAXsXiX7Xq.v 9 %.dXNXkXgXpX&Xq.UXUXUXUXUX",
"UXUXUXUXUX&.%XAXAXCXCXCXNXNX_.&.W.~.~.].-X-Xb.:.}  .w.NXSXdX8X6X-.9 9 8 *.2XlXkXpXfXz.UXUXUXUXUX",
"UXUXUXUXUX@.Q.lXiXNXNXNXvXgX&.(.|.|.5XwX4X:X*X:.} C =.dXSXdX8X&X-.4 9 4 5 *.).lXjXfXQ.UXUXUXUXUX",
"UXUXUXUXUX-.NXNX7X!.aXlXjXT.l.@X XMXrXeX4X;X=X,.C C { ).FXhX8X+X&.4 5 5 6 o.).NXjXfXoXp UXUXUXUX",
"UXUXUXUX@.^.NXNXvXlXlX,Xq.l.@X>XqXmXyXeX4X;X=X,.V n ' L.SXhX8X/.[ 4 9 5 I w.NXdXiXpXOX=.UXUXUXUX",
"UXUXUXUX&.1XNXlXlXlX`.-.W. X3X6XVXmXrX0X4X;X=XB.y.u.t.;.ZXjX8XE.' 4 9 9 q.uXkXiXiX^.w.UXUXUXUXUX",
"UXUXUXUX&.lXlXlXR.^.q.k.m n | ].mXnXrX0X4X-X}.[.F.N.j.=.lXkXiXOX&.4 9 5 q.^.dX<Xl.@.UXUXUXUXUXUX",
"UXUXUX@.#.s 1XK.0.q.n.V m C } C XXnXtX9X:X-X{.H.A.M.g.=.uXlXpX&X;.4 9 9 v *.0.;.X.q   UXUXUXUXUX",
"UXUXUX=.$.a $.-.z.V.<.n C } ] V v.rX0X4X;X}.{.F.C.M.f.O.^.FXiXL.o.9 9 w 9 q F A ( f o UXUXUXUXUX",
"UXUXUXUXq.w.q.' n.B.N C } Y C V C :X9X:X-X{.H.A.N.m.f.t.-.`.w.[ 5 9 w w w 4 % 2 K l . UXUXUXUXUX",
"UXUXUXUXUXUXUX& n.x.m C C C m n x C ;X-X}.[.F.C.M.g.s.r.Q [ y 4 9 w w w 9 $ $ $ B w UXUXUXUXUXUX",
"UXUXUXUXUXUXUX: ].S.C C V m n n k e | .X[.F.C.M.h.f.p.6.4.E 9 9 w w w 9 * $ $ 1 8.4 UXUXUXUXUXUX",
"UXUXUXUXUXUXUX; b.S.m n n n z k j w Y J.F.C.N.m.f.s.r.4.1.E G 9 w w 6 $ $ $ < S 9.4 UXUXUXUXUXUX",
"UXUXUXUXUXUXUXUXN D.n n z x k j w X.H.F.C.M.m.f.s.i.6.4./ L K w 9 3 $ $ * < A H T ; UXUXUXUXUXUX",
"UXUXUXUXUXUXUXUX> D.z k k j e w 8 b.F.C.M.h.f.s.i.6.4./ E K K q * $ $ * < g S ( c o UXUXUXUXUXUX",
"UXUXUXUXUXUXUXUX- y.m k e w w w 9 N Z.m.g.f.s.i.6.4.1.E K H S < $ * * $ g S S a.4 UXUXUXUXUXUXUX",
"UXUXUXUXUXUXUXUXUX4 :.9 w w w w 9 8 t.f.s.p.r.6.4.1.L D A A A * * * $ g S S ^ b = UXUXUXUXUXUXUX",
"UXUXUXUXUXUXUXUXUX- R 9 3 4 w w 9 9 R s.i.6.4.1.E J S A A S d * * , g S S S 5.4 UXUXUXUXUXUXUXUX",
"UXUXUXUXUXUXUXUXUXUX: } 6 % $ * * 5 7.1.1.L K J D A A A A A $ * 0 A S S S 8.r + UXUXUXUXUXUXUXUX",
"UXUXUXUXUXUXUXUXUXUX& t >.^ W q % f ^ L K J D S A A A A A h 1 Z S S A S 2.M ; UXUXUXUXUXUXUXUXUX",
"UXUXUXUXUXUXUXUXUXUXUX> k d.3.! G J J J D S A A A A A A A A A A A A S ) T : UXUXUXUXUXUXUXUXUXUX",
"UXUXUXUXUXUXUXUXUXUXUXUX> r a.! H D S S A A A A A A A A A A A A S S 7.M : UXUXUXUXUXUXUXUXUXUXUX",
"UXUXUXUXUXUXUXUXUXUXUXUXUX# 8 ` ) S A A A A A A A A A A A A A S ! 9.k ; UXUXUXUXUXUXUXUXUXUXUXUX",
"UXUXUXUXUXUXUXUXUXUXUXUXUXUXUX: k _ ( H S A A A A A A A S S ! 9.U 7 # UXUXUXUXUXUXUXUXUXUXUXUXUX",
"UXUXUXUXUXUXUXUXUXUXUXUXUXUXUXUX+ : c T 5.2.( ! ~ ! ^ ) 9.` b 8 = UXUXUXUXUXUXUXUXUXUXUXUXUXUXUX",
"UXUXUXUXUXUXUXUXUXUXUXUXUXUXUXUXUXUX. ; : w k b U b c r 7 : O UXUXUXUXUXUXUXUXUXUXUXUXUXUXUXUXUX",
"UXUXUXUXUXUXUXUXUXUXUXUXUXUXUXUXUXUXUXUXUXUXX o O o . UXUXUXUXUXUXUXUXUXUXUXUXUXUXUXUXUXUXUXUXUX",
"UXUXUXUXUXUXUXUXUXUXUXUXUXUXUXUXUXUXUXUXUXUXUXUXUXUXUXUXUXUXUXUXUXUXUXUXUXUXUXUXUXUXUXUXUXUXUXUX",
"UXUXUXUXUXUXUXUXUXUXUXUXUXUXUXUXUXUXUXUXUXUXUXUXUXUXUXUXUXUXUXUXUXUXUXUXUXUXUXUXUXUXUXUXUXUXUXUX"
};
